<?xml version="1.0" encoding="utf-8"?>
<!-- Generator: Adobe Illustrator 27.0.1, SVG Export Plug-In . SVG Version: 6.00 Build 0)  -->
<svg version="1.1" id="Ebene_1" xmlns="http://www.w3.org/2000/svg" xmlns:xlink="http://www.w3.org/1999/xlink" x="0px" y="0px"
	 viewBox="0 0 25.3 25.3" style="enable-background:new 0 0 25.3 25.3;" xml:space="preserve">
<style type="text/css">
	.st0{fill:#A4FFA3;}
</style>
<g>
	<g>
		<circle class="st0" cx="12.7" cy="12.6" r="12.6"/>
	</g>
</g>
<g>
	<g>
		<path d="M12.7,21.6c-5,0-9-4-9-9s4-9,9-9s9,4,9,9S17.6,21.6,12.7,21.6z M12.7,4.4c-4.6,0-8.3,3.7-8.3,8.3c0,4.6,3.7,8.3,8.3,8.3
			c4.6,0,8.3-3.7,8.3-8.3C20.9,8.1,17.2,4.4,12.7,4.4z"/>
	</g>
</g>
<g>
	<g>
		<circle cx="9.4" cy="10.1" r="1.3"/>
	</g>
</g>
<g>
	<g>
		<circle cx="16" cy="10.1" r="1.3"/>
	</g>
</g>
<g>
	<path d="M12.7,17.8c-2.9,0-4.5-1.9-4.9-3l-0.1-0.3l0.7-0.3l0.1,0.3c0.4,0.9,1.7,2.5,4.3,2.5c2.5,0,3.9-1.7,4.3-2.5l0.1-0.3l0.7,0.3
		l-0.1,0.3C17.2,15.8,15.6,17.8,12.7,17.8z"/>
</g>
</svg>
